<mxfile host="app.diagrams.net" modified="2020-11-23T18:16:55.186Z" agent="5.0 (X11; Linux x86_64) AppleWebKit/537.36 (KHTML, like Gecko) Chrome/87.0.4280.66 Safari/537.36" etag="4IuPm72MzR0K_CKMc1CA" version="13.10.1" type="github">
  <diagram id="m5LIFQXV51slRLyAI-Q7" name="Page-1">
    <mxGraphModel dx="2489" dy="802" grid="1" gridSize="10" guides="1" tooltips="1" connect="1" arrows="1" fold="1" page="1" pageScale="1" pageWidth="827" pageHeight="1169" math="0" shadow="0">
      <root>
        <mxCell id="0" />
        <mxCell id="1" parent="0" />
        <mxCell id="Jz2tUw2HddmQnOrqGyK4-3" value="" style="rounded=0;whiteSpace=wrap;html=1;" vertex="1" parent="1">
          <mxGeometry x="-60" y="10" width="810" height="470" as="geometry" />
        </mxCell>
        <mxCell id="nxpGUnvefy_1JqMfPJ54-1" value="Browser" style="whiteSpace=wrap;html=1;aspect=fixed;" parent="1" vertex="1">
          <mxGeometry x="20" y="40" width="80" height="80" as="geometry" />
        </mxCell>
        <mxCell id="nxpGUnvefy_1JqMfPJ54-2" value="" style="endArrow=classic;html=1;entryX=0;entryY=0.5;entryDx=0;entryDy=0;" parent="1" target="nxpGUnvefy_1JqMfPJ54-5" edge="1">
          <mxGeometry width="50" height="50" relative="1" as="geometry">
            <mxPoint x="100" y="80" as="sourcePoint" />
            <mxPoint x="240" y="80" as="targetPoint" />
          </mxGeometry>
        </mxCell>
        <mxCell id="nxpGUnvefy_1JqMfPJ54-3" value="google.com/?q=nope.gif" style="edgeLabel;html=1;align=center;verticalAlign=middle;resizable=0;points=[];" parent="nxpGUnvefy_1JqMfPJ54-2" vertex="1" connectable="0">
          <mxGeometry x="-0.2714" y="-2" relative="1" as="geometry">
            <mxPoint as="offset" />
          </mxGeometry>
        </mxCell>
        <mxCell id="nxpGUnvefy_1JqMfPJ54-4" value="WHERE IS NOPE.GIF??" style="edgeStyle=orthogonalEdgeStyle;rounded=0;orthogonalLoop=1;jettySize=auto;html=1;" parent="1" source="nxpGUnvefy_1JqMfPJ54-5" target="nxpGUnvefy_1JqMfPJ54-7" edge="1">
          <mxGeometry relative="1" as="geometry">
            <mxPoint x="570" y="200" as="targetPoint" />
          </mxGeometry>
        </mxCell>
        <mxCell id="nxpGUnvefy_1JqMfPJ54-5" value="WEB SERVER" style="shape=process;whiteSpace=wrap;html=1;backgroundOutline=1;" parent="1" vertex="1">
          <mxGeometry x="294" y="50" width="120" height="60" as="geometry" />
        </mxCell>
        <mxCell id="nxpGUnvefy_1JqMfPJ54-6" value="PRODUCES" style="edgeStyle=orthogonalEdgeStyle;rounded=0;orthogonalLoop=1;jettySize=auto;html=1;" parent="1" source="nxpGUnvefy_1JqMfPJ54-7" target="nxpGUnvefy_1JqMfPJ54-10" edge="1">
          <mxGeometry relative="1" as="geometry" />
        </mxCell>
        <mxCell id="nxpGUnvefy_1JqMfPJ54-7" value="CODE" style="shape=parallelogram;perimeter=parallelogramPerimeter;whiteSpace=wrap;html=1;fixedSize=1;" parent="1" vertex="1">
          <mxGeometry x="294" y="190" width="120" height="60" as="geometry" />
        </mxCell>
        <mxCell id="nxpGUnvefy_1JqMfPJ54-8" style="edgeStyle=orthogonalEdgeStyle;rounded=0;orthogonalLoop=1;jettySize=auto;html=1;entryX=0.5;entryY=1;entryDx=0;entryDy=0;" parent="1" source="nxpGUnvefy_1JqMfPJ54-10" target="nxpGUnvefy_1JqMfPJ54-1" edge="1">
          <mxGeometry relative="1" as="geometry" />
        </mxCell>
        <mxCell id="nxpGUnvefy_1JqMfPJ54-9" value="Here&#39;s your web page Sir!" style="edgeLabel;html=1;align=center;verticalAlign=middle;resizable=0;points=[];" parent="nxpGUnvefy_1JqMfPJ54-8" vertex="1" connectable="0">
          <mxGeometry x="0.1176" y="3" relative="1" as="geometry">
            <mxPoint x="3" y="-120" as="offset" />
          </mxGeometry>
        </mxCell>
        <mxCell id="nxpGUnvefy_1JqMfPJ54-10" value="HTML" style="shape=step;perimeter=stepPerimeter;whiteSpace=wrap;html=1;fixedSize=1;" parent="1" vertex="1">
          <mxGeometry x="294" y="370" width="120" height="80" as="geometry" />
        </mxCell>
        <mxCell id="nxpGUnvefy_1JqMfPJ54-11" value="DataBase" style="shape=cylinder3;whiteSpace=wrap;html=1;boundedLbl=1;backgroundOutline=1;size=15;" parent="1" vertex="1">
          <mxGeometry x="530" y="180" width="60" height="80" as="geometry" />
        </mxCell>
        <mxCell id="nxpGUnvefy_1JqMfPJ54-12" value="" style="shape=flexArrow;endArrow=classic;startArrow=classic;html=1;entryX=0;entryY=0.5;entryDx=0;entryDy=0;entryPerimeter=0;exitX=1;exitY=0.5;exitDx=0;exitDy=0;" parent="1" source="nxpGUnvefy_1JqMfPJ54-7" target="nxpGUnvefy_1JqMfPJ54-11" edge="1">
          <mxGeometry width="50" height="50" relative="1" as="geometry">
            <mxPoint x="400" y="200" as="sourcePoint" />
            <mxPoint x="450" y="150" as="targetPoint" />
            <Array as="points" />
          </mxGeometry>
        </mxCell>
        <mxCell id="Jz2tUw2HddmQnOrqGyK4-1" value="&lt;font style=&quot;font-size: 48px&quot; face=&quot;Tahoma&quot;&gt;&lt;b&gt;THE INTERNET&lt;/b&gt;&lt;/font&gt;" style="text;html=1;strokeColor=none;fillColor=none;align=center;verticalAlign=middle;whiteSpace=wrap;rounded=0;" vertex="1" parent="1">
          <mxGeometry x="-650" y="130" width="280" height="190" as="geometry" />
        </mxCell>
        <mxCell id="Jz2tUw2HddmQnOrqGyK4-2" value="" style="shape=flexArrow;endArrow=classic;html=1;" edge="1" parent="1" source="Jz2tUw2HddmQnOrqGyK4-1">
          <mxGeometry width="50" height="50" relative="1" as="geometry">
            <mxPoint x="-380" y="275" as="sourcePoint" />
            <mxPoint x="-60" y="230" as="targetPoint" />
          </mxGeometry>
        </mxCell>
      </root>
    </mxGraphModel>
  </diagram>
</mxfile>
